<svg xmlns="http://www.w3.org/2000/svg" xmlns:xlink="http://www.w3.org/1999/xlink" xmlns:lucid="lucid" width="1760" height="1360"><g transform="translate(0 0)" lucid:page-tab-id="Ory4K21QliSI"><path d="M0 0h1760v1360H0z" fill="#fff"/><path d="M453.15 76c0-4.42 3.58-8 8-8h836.75c4.4 0 8 3.58 8 8v25.16c0 4.4-3.6 8-8 8H461.15c-4.42 0-8-3.6-8-8z" stroke="#000" stroke-opacity="0" stroke-width="2" fill="#fff" fill-opacity="0"/><use xlink:href="#a" transform="matrix(1,0,0,1,457.1465527853429,71.99999999994924) translate(325.51 25.782777777777778)"/><use xlink:href="#b" transform="matrix(1,0,0,1,457.1465527853429,71.99999999994924) translate(383.70876543209874 25.782777777777778)"/><path d="M628.64 107.8h505.86M628.66 107.8h-1.02M1134.47 107.8h1.03" stroke="#a9afb8" stroke-width="2" fill="none"/><path d="M453.15 117.16c0-4.42 3.58-8 8-8h837.7c4.42 0 8 3.58 8 8V120c0 4.42-3.58 8-8 8h-837.7c-4.42 0-8-3.58-8-8z" stroke="#000" stroke-opacity="0" stroke-width="2" fill="#fff" fill-opacity="0"/><use xlink:href="#c" transform="matrix(1,0,0,1,457.1465527853434,113.15522395684805) translate(314.4345884773663 14.917037037037037)"/><use xlink:href="#d" transform="matrix(1,0,0,1,457.1465527853434,113.15522395684805) translate(354.24744855967083 14.917037037037037)"/><use xlink:href="#e" transform="matrix(1,0,0,1,457.1465527853434,113.15522395684805) translate(419.5966255144033 14.917037037037037)"/><use xlink:href="#f" transform="matrix(1,0,0,1,457.1465527853434,113.15522395684805) translate(432.04611111111114 14.917037037037037)"/><use xlink:href="#g" transform="matrix(1,0,0,1,457.1465527853434,113.15522395684805) translate(478.69981481481483 14.917037037037037)"/><use xlink:href="#h" transform="matrix(1,0,0,1,457.1465527853434,113.15522395684805) translate(504.19364197530865 14.917037037037037)"/><path d="M540.5 245c0-2.76 2.24-5 5-5h270c2.76 0 5 2.24 5 5v222c0 2.76-2.24 5-5 5h-270c-2.76 0-5-2.24-5-5z" fill="#fff"/><path d="M540.5 280v-35c0-2.76 2.24-5 5-5h270c2.76 0 5 2.24 5 5v35" fill="#ccc"/><path d="M540.5 245c0-2.76 2.24-5 5-5h270c2.76 0 5 2.24 5 5v222c0 2.76-2.24 5-5 5h-270c-2.76 0-5-2.24-5-5zM540.5 280h280M680.5 280v192" stroke="#333" fill="none"/><use xlink:href="#i" transform="matrix(1,0,0,1,550.5,240) translate(0 23.6)"/><use xlink:href="#j" transform="matrix(1,0,0,1,545.5,282.5) translate(0 17.1)"/><use xlink:href="#k" transform="matrix(1,0,0,1,685.5,282.5) translate(0 17.1)"/><use xlink:href="#l" transform="matrix(1,0,0,1,685.5,282.5) translate(47.85 17.1)"/><use xlink:href="#m" transform="matrix(1,0,0,1,545.5,314.5) translate(0 17.1)"/><use xlink:href="#n" transform="matrix(1,0,0,1,685.5,314.5) translate(0 17.1)"/><use xlink:href="#o" transform="matrix(1,0,0,1,545.5,346.5) translate(0 17.1)"/><use xlink:href="#n" transform="matrix(1,0,0,1,685.5,346.5) translate(0 17.1)"/><use xlink:href="#p" transform="matrix(1,0,0,1,545.5,378.5) translate(0 17.1)"/><use xlink:href="#q" transform="matrix(1,0,0,1,685.5,378.5) translate(0 17.1)"/><use xlink:href="#r" transform="matrix(1,0,0,1,545.5,410.5) translate(0 17.1)"/><use xlink:href="#s" transform="matrix(1,0,0,1,685.5,410.5) translate(0 17.1)"/><use xlink:href="#t" transform="matrix(1,0,0,1,545.5,442.5) translate(0 17.1)"/><use xlink:href="#s" transform="matrix(1,0,0,1,685.5,442.5) translate(0 17.1)"/><path d="M1040 245c0-2.76 2.24-5 5-5h270c2.76 0 5 2.24 5 5v350c0 2.76-2.24 5-5 5h-270c-2.76 0-5-2.24-5-5z" fill="#fff"/><path d="M1040 280v-35c0-2.76 2.24-5 5-5h270c2.76 0 5 2.24 5 5v35" fill="#ccc"/><path d="M1040 245c0-2.76 2.24-5 5-5h270c2.76 0 5 2.24 5 5v350c0 2.76-2.24 5-5 5h-270c-2.76 0-5-2.24-5-5zM1040 280h280M1180 280v320" stroke="#333" fill="none"/><use xlink:href="#u" transform="matrix(1,0,0,1,1050,240) translate(0 23.6)"/><use xlink:href="#v" transform="matrix(1,0,0,1,1045,282.5) translate(0 17.1)"/><use xlink:href="#w" transform="matrix(1,0,0,1,1185,282.5) translate(0 17.1)"/><use xlink:href="#x" transform="matrix(1,0,0,1,1185,282.5) translate(47.85 17.1)"/><use xlink:href="#y" transform="matrix(1,0,0,1,1045,314.5) translate(0 17.1)"/><use xlink:href="#z" transform="matrix(1,0,0,1,1185,314.5) translate(0 17.1)"/><use xlink:href="#A" transform="matrix(1,0,0,1,1045,346.5) translate(0 17.1)"/><use xlink:href="#B" transform="matrix(1,0,0,1,1185,346.5) translate(0 17.1)"/><use xlink:href="#C" transform="matrix(1,0,0,1,1045,378.5) translate(0 17.1)"/><use xlink:href="#B" transform="matrix(1,0,0,1,1185,378.5) translate(0 17.1)"/><use xlink:href="#D" transform="matrix(1,0,0,1,1045,410.5) translate(0 17.1)"/><use xlink:href="#B" transform="matrix(1,0,0,1,1185,410.5) translate(0 17.1)"/><use xlink:href="#E" transform="matrix(1,0,0,1,1045,442.5) translate(0 17.1)"/><use xlink:href="#B" transform="matrix(1,0,0,1,1185,442.5) translate(0 17.1)"/><use xlink:href="#F" transform="matrix(1,0,0,1,1045,474.5) translate(0 17.1)"/><use xlink:href="#B" transform="matrix(1,0,0,1,1185,474.5) translate(0 17.1)"/><use xlink:href="#G" transform="matrix(1,0,0,1,1045,506.5) translate(0 17.1)"/><use xlink:href="#H" transform="matrix(1,0,0,1,1185,506.5) translate(0 17.1)"/><use xlink:href="#r" transform="matrix(1,0,0,1,1045,538.5) translate(0 17.1)"/><use xlink:href="#s" transform="matrix(1,0,0,1,1185,538.5) translate(0 17.1)"/><use xlink:href="#t" transform="matrix(1,0,0,1,1045,570.5) translate(0 17.1)"/><use xlink:href="#I" transform="matrix(1,0,0,1,1185,570.5) translate(0 17.1)"/><path d="M540 738.87c0-2.76 2.24-5 5-5h270c2.76 0 5 2.24 5 5v158c0 2.76-2.24 5-5 5H545c-2.76 0-5-2.24-5-5z" fill="#fff"/><path d="M540 773.87v-35c0-2.76 2.24-5 5-5h270c2.76 0 5 2.24 5 5v35" fill="#ccc"/><path d="M540 738.87c0-2.76 2.24-5 5-5h270c2.76 0 5 2.24 5 5v158c0 2.76-2.24 5-5 5H545c-2.76 0-5-2.24-5-5zM540 773.87h280M678.28 773.87v128" stroke="#333" fill="none"/><use xlink:href="#J" transform="matrix(1,0,0,1,550,733.873075834147) translate(0 23.6)"/><use xlink:href="#K" transform="matrix(1,0,0,1,545,776.373075834147) translate(0 17.1)"/><use xlink:href="#w" transform="matrix(1,0,0,1,683.2798345758615,776.373075834147) translate(0 17.1)"/><use xlink:href="#x" transform="matrix(1,0,0,1,683.2798345758615,776.373075834147) translate(47.85 17.1)"/><use xlink:href="#y" transform="matrix(1,0,0,1,545,808.373075834147) translate(0 17.1)"/><use xlink:href="#z" transform="matrix(1,0,0,1,683.2798345758615,808.373075834147) translate(0 17.1)"/><use xlink:href="#L" transform="matrix(1,0,0,1,545,840.373075834147) translate(0 17.1)"/><use xlink:href="#B" transform="matrix(1,0,0,1,683.2798345758615,840.373075834147) translate(0 17.1)"/><use xlink:href="#G" transform="matrix(1,0,0,1,545,872.373075834147) translate(0 17.1)"/><use xlink:href="#H" transform="matrix(1,0,0,1,683.2798345758615,872.373075834147) translate(0 17.1)"/><path d="M841 295.8h83.25c3.3 0 6 2.67 6 6V322c0 3.3 2.7 6 6 6h83.84" stroke="#3a414a" fill="none"/><path d="M841 305.8v-20M821 295.8h20" stroke="#3a414a" fill="#fff"/><path d="M1039.28 338l-20-10 20-10" stroke="#3a414a" fill="#fff" fill-opacity="0"/><path d="M1039.28 328h-20" stroke="#3a414a" fill="#fff"/><path d="M520 295.8h-14.5c-3.3 0-6 2.67-6 6v514.1c0 3.3 2.7 6 6 6h14.6" stroke="#3a414a" fill="none"/><path d="M520 285.8v20M540 295.8h-20" stroke="#3a414a" fill="#fff"/><path d="M539.28 831.9l-20-10 20-10" stroke="#3a414a" fill="#fff" fill-opacity="0"/><path d="M539.28 821.9h-20" stroke="#3a414a" fill="#fff"/><defs><path fill="#a9afb8" d="M24 0v-248h52v208h133V0H24" id="M"/><path fill="#a9afb8" d="M133-34C117-15 103 5 69 4 32 3 11-16 11-54c-1-60 55-63 116-61 1-26-3-47-28-47-18 1-26 9-28 27l-52-2c7-38 36-58 82-57s74 22 75 68l1 82c-1 14 12 18 25 15v27c-30 8-71 5-69-32zm-48 3c29 0 43-24 42-57-32 0-66-3-65 30 0 17 8 27 23 27" id="N"/><path fill="#a9afb8" d="M231 0h-52l-39-155L100 0H48L-1-190h46L77-45c9-52 24-97 36-145h53l37 145 32-145h46" id="O"/><g id="a"><use transform="matrix(0.0728395061728395,0,0,0.0728395061728395,0,0)" xlink:href="#M"/><use transform="matrix(0.0728395061728395,0,0,0.0728395061728395,15.95185185185185,0)" xlink:href="#N"/><use transform="matrix(0.0728395061728395,0,0,0.0728395061728395,30.51975308641975,0)" xlink:href="#O"/></g><path fill="#a9afb8" d="M24-248c120-7 223 5 221 122C244-46 201 0 124 0H24v-248zM76-40c74 7 117-18 117-86 0-67-45-88-117-82v168" id="P"/><path fill="#a9afb8" d="M110-194c64 0 96 36 96 99 0 64-35 99-97 99-61 0-95-36-95-99 0-62 34-99 96-99zm-1 164c35 0 45-28 45-65 0-40-10-65-43-65-34 0-45 26-45 65 0 36 10 65 43 65" id="Q"/><path fill="#a9afb8" d="M190-63c-7 42-38 67-86 67-59 0-84-38-90-98-12-110 154-137 174-36l-49 2c-2-19-15-32-35-32-30 0-35 28-38 64-6 74 65 87 74 30" id="R"/><path fill="#a9afb8" d="M85 4C-2 5 27-109 22-190h50c7 57-23 150 33 157 60-5 35-97 40-157h50l1 190h-47c-2-12 1-28-3-38-12 25-28 42-61 42" id="S"/><path fill="#a9afb8" d="M220-157c-53 9-28 100-34 157h-49v-107c1-27-5-49-29-50C55-147 81-57 75 0H25l-1-190h47c2 12-1 28 3 38 10-53 101-56 108 0 13-22 24-43 59-42 82 1 51 116 57 194h-49v-107c-1-25-5-48-29-50" id="T"/><path fill="#a9afb8" d="M185-48c-13 30-37 53-82 52C43 2 14-33 14-96s30-98 90-98c62 0 83 45 84 108H66c0 31 8 55 39 56 18 0 30-7 34-22zm-45-69c5-46-57-63-70-21-2 6-4 13-4 21h74" id="U"/><path fill="#a9afb8" d="M135-194c87-1 58 113 63 194h-50c-7-57 23-157-34-157-59 0-34 97-39 157H25l-1-190h47c2 12-1 28 3 38 12-26 28-41 61-42" id="V"/><path fill="#a9afb8" d="M115-3C79 11 28 4 28-45v-112H4v-33h27l15-45h31v45h36v33H77v99c-1 23 16 31 38 25v30" id="W"/><path fill="#a9afb8" d="M137-138c1-29-70-34-71-4 15 46 118 7 119 86 1 83-164 76-172 9l43-7c4 19 20 25 44 25 33 8 57-30 24-41C81-84 22-81 20-136c-2-80 154-74 161-7" id="X"/><g id="b"><use transform="matrix(0.0728395061728395,0,0,0.0728395061728395,0,0)" xlink:href="#P"/><use transform="matrix(0.0728395061728395,0,0,0.0728395061728395,18.86543209876543,0)" xlink:href="#Q"/><use transform="matrix(0.0728395061728395,0,0,0.0728395061728395,34.81728395061728,0)" xlink:href="#R"/><use transform="matrix(0.0728395061728395,0,0,0.0728395061728395,49.38518518518518,0)" xlink:href="#S"/><use transform="matrix(0.0728395061728395,0,0,0.0728395061728395,65.33703703703704,0)" xlink:href="#T"/><use transform="matrix(0.0728395061728395,0,0,0.0728395061728395,88.64567901234568,0)" xlink:href="#U"/><use transform="matrix(0.0728395061728395,0,0,0.0728395061728395,103.21358024691358,0)" xlink:href="#V"/><use transform="matrix(0.0728395061728395,0,0,0.0728395061728395,119.16543209876544,0)" xlink:href="#W"/><use transform="matrix(0.0728395061728395,0,0,0.0728395061728395,127.83333333333334,0)" xlink:href="#X"/></g><path fill="#a9afb8" d="M115-194c55 1 70 41 70 98S169 2 115 4C84 4 66-9 55-30l1 105H24l-1-265h31l2 30c10-21 28-34 59-34zm-8 174c40 0 45-34 45-75s-6-73-45-74c-42 0-51 32-51 76 0 43 10 73 51 73" id="Y"/><path fill="#a9afb8" d="M106-169C34-169 62-67 57 0H25v-261h32l-1 103c12-21 28-36 61-36 89 0 53 116 60 194h-32v-121c2-32-8-49-39-48" id="Z"/><path fill="#a9afb8" d="M24-231v-30h32v30H24zM24 0v-190h32V0H24" id="aa"/><path fill="#a9afb8" d="M24 0v-261h32V0H24" id="ab"/><g id="c"><use transform="matrix(0.04248971193415638,0,0,0.04248971193415638,0,0)" xlink:href="#Y"/><use transform="matrix(0.04248971193415638,0,0,0.04248971193415638,8.497942386831275,0)" xlink:href="#Z"/><use transform="matrix(0.04248971193415638,0,0,0.04248971193415638,16.99588477366255,0)" xlink:href="#aa"/><use transform="matrix(0.04248971193415638,0,0,0.04248971193415638,20.352572016460904,0)" xlink:href="#ab"/><use transform="matrix(0.04248971193415638,0,0,0.04248971193415638,23.70925925925926,0)" xlink:href="#aa"/><use transform="matrix(0.04248971193415638,0,0,0.04248971193415638,27.065946502057614,0)" xlink:href="#Y"/></g><path fill="#a9afb8" d="M135-143c-3-34-86-38-87 0 15 53 115 12 119 90S17 21 10-45l28-5c4 36 97 45 98 0-10-56-113-15-118-90-4-57 82-63 122-42 12 7 21 19 24 35" id="ac"/><path fill="#a9afb8" d="M96-169c-40 0-48 33-48 73s9 75 48 75c24 0 41-14 43-38l32 2c-6 37-31 61-74 61-59 0-76-41-82-99-10-93 101-131 147-64 4 7 5 14 7 22l-32 3c-4-21-16-35-41-35" id="ad"/><path fill="#a9afb8" d="M84 4C-5 8 30-112 23-190h32v120c0 31 7 50 39 49 72-2 45-101 50-169h31l1 190h-30c-1-10 1-25-2-33-11 22-28 36-60 37" id="ae"/><path fill="#a9afb8" d="M210-169c-67 3-38 105-44 169h-31v-121c0-29-5-50-35-48C34-165 62-65 56 0H25l-1-190h30c1 10-1 24 2 32 10-44 99-50 107 0 11-21 27-35 58-36 85-2 47 119 55 194h-31v-121c0-29-5-49-35-48" id="af"/><g id="d"><use transform="matrix(0.04248971193415638,0,0,0.04248971193415638,0,0)" xlink:href="#ac"/><use transform="matrix(0.04248971193415638,0,0,0.04248971193415638,7.648148148148148,0)" xlink:href="#ad"/><use transform="matrix(0.04248971193415638,0,0,0.04248971193415638,15.296296296296296,0)" xlink:href="#Z"/><use transform="matrix(0.04248971193415638,0,0,0.04248971193415638,23.79423868312757,0)" xlink:href="#ab"/><use transform="matrix(0.04248971193415638,0,0,0.04248971193415638,27.150925925925925,0)" xlink:href="#ae"/><use transform="matrix(0.04248971193415638,0,0,0.04248971193415638,35.6488683127572,0)" xlink:href="#af"/><use transform="matrix(0.04248971193415638,0,0,0.04248971193415638,48.35329218106995,0)" xlink:href="#Y"/></g><path fill="#a9afb8" d="M32 76v-337h29V76H32" id="ag"/><use transform="matrix(0.04248971193415638,0,0,0.04248971193415638,0,0)" xlink:href="#ag" id="e"/><path fill="#a9afb8" d="M240 0l2-218c-23 76-54 145-80 218h-23L58-218 59 0H30v-248h44l77 211c21-75 51-140 76-211h43V0h-30" id="ah"/><path fill="#a9afb8" d="M141-36C126-15 110 5 73 4 37 3 15-17 15-53c-1-64 63-63 125-63 3-35-9-54-41-54-24 1-41 7-42 31l-33-3c5-37 33-52 76-52 45 0 72 20 72 64v82c-1 20 7 32 28 27v20c-31 9-61-2-59-35zM48-53c0 20 12 33 32 33 41-3 63-29 60-74-43 2-92-5-92 41" id="ai"/><path fill="#a9afb8" d="M114-163C36-179 61-72 57 0H25l-1-190h30c1 12-1 29 2 39 6-27 23-49 58-41v29" id="aj"/><g id="f"><use transform="matrix(0.04248971193415638,0,0,0.04248971193415638,0,0)" xlink:href="#ah"/><use transform="matrix(0.04248971193415638,0,0,0.04248971193415638,12.704423868312757,0)" xlink:href="#ai"/><use transform="matrix(0.04248971193415638,0,0,0.04248971193415638,21.20236625514403,0)" xlink:href="#aj"/><use transform="matrix(0.04248971193415638,0,0,0.04248971193415638,26.25864197530864,0)" xlink:href="#ad"/><use transform="matrix(0.04248971193415638,0,0,0.04248971193415638,33.90679012345679,0)" xlink:href="#Z"/></g><path fill="#a9afb8" d="M101-251c82-7 93 87 43 132L82-64C71-53 59-42 53-27h129V0H18c2-99 128-94 128-182 0-28-16-43-45-43s-46 15-49 41l-32-3c6-41 34-60 81-64" id="ak"/><path fill="#a9afb8" d="M126-127c33 6 58 20 58 59 0 88-139 92-164 29-3-8-5-16-6-25l32-3c6 27 21 44 54 44 32 0 52-15 52-46 0-38-36-46-79-43v-28c39 1 72-4 72-42 0-27-17-43-46-43-28 0-47 15-49 41l-32-3c6-42 35-63 81-64 48-1 79 21 79 65 0 36-21 52-52 59" id="al"/><path fill="#a9afb8" d="M68-38c1 34 0 65-14 84H32c9-13 17-26 17-46H33v-38h35" id="am"/><g id="g"><use transform="matrix(0.04248971193415638,0,0,0.04248971193415638,0,0)" xlink:href="#ak"/><use transform="matrix(0.04248971193415638,0,0,0.04248971193415638,8.497942386831275,0)" xlink:href="#al"/><use transform="matrix(0.04248971193415638,0,0,0.04248971193415638,16.99588477366255,0)" xlink:href="#am"/></g><path fill="#a9afb8" d="M101-251c68 0 85 55 85 127S166 4 100 4C33 4 14-52 14-124c0-73 17-127 87-127zm-1 229c47 0 54-49 54-102s-4-102-53-102c-51 0-55 48-55 102 0 53 5 102 54 102" id="an"/><g id="h"><use transform="matrix(0.04248971193415638,0,0,0.04248971193415638,0,0)" xlink:href="#ak"/><use transform="matrix(0.04248971193415638,0,0,0.04248971193415638,8.497942386831275,0)" xlink:href="#an"/><use transform="matrix(0.04248971193415638,0,0,0.04248971193415638,16.99588477366255,0)" xlink:href="#ak"/><use transform="matrix(0.04248971193415638,0,0,0.04248971193415638,25.493827160493822,0)" xlink:href="#ak"/></g><path fill="#333" d="M6 0l50-261h32L37 0H6" id="ao"/><path fill="#333" d="M165-48c-4 18 1 34 23 27l-3 20c-29 8-62 0-52-35h-2C116-14 99 4 63 4 30 4 8-16 8-49c0-68 71-67 138-67 10-26 0-56-31-54-26 1-42 9-47 31l-32-5c8-67 160-71 144 15-5 28-9 54-15 81zM42-50c3 52 80 24 89-6 7-12 7-24 11-38-47 1-103-4-100 44" id="ap"/><path fill="#333" d="M188 0h-37l-8-164L71 0H34L18-190h31l8 164 75-164h34l8 164 74-164h31" id="aq"/><path fill="#333" d="M-28 44V31h207v13H-28" id="ar"/><path fill="#333" d="M44-68c0 29 11 47 38 47 30 0 42-19 51-41l28 9C148-21 126 4 82 4 31 4 10-29 12-85c3-77 74-140 146-93 12 8 15 23 18 40l-31 5c-1-22-13-36-36-36-52 0-65 49-65 101" id="as"/><path fill="#333" d="M55-144c13 50 104 24 104 88C159 21 15 23 1-39l26-10c6 40 102 42 102-4-13-50-104-23-104-87 0-71 143-71 148-8l-29 4c-5-35-85-37-89 0" id="at"/><path fill="#333" d="M111-194c62-3 86 47 72 106H45c-7 38 6 69 45 68 27-1 43-14 53-32l24 11C152-15 129 4 87 4 38 3 12-23 12-71c0-70 32-119 99-123zm44 81c14-66-71-72-95-28-4 8-8 17-11 28h106" id="au"/><g id="i"><use transform="matrix(0.05,0,0,0.05,0,0)" xlink:href="#ao"/><use transform="matrix(0.05,0,0,0.05,3.95,0)" xlink:href="#ap"/><use transform="matrix(0.05,0,0,0.05,13.949999999999998,0)" xlink:href="#aq"/><use transform="matrix(0.05,0,0,0.05,26.899999999999995,0)" xlink:href="#ar"/><use transform="matrix(0.05,0,0,0.05,36.9,0)" xlink:href="#as"/><use transform="matrix(0.05,0,0,0.05,45.9,0)" xlink:href="#ap"/><use transform="matrix(0.05,0,0,0.05,55.900000000000006,0)" xlink:href="#at"/><use transform="matrix(0.05,0,0,0.05,64.9,0)" xlink:href="#au"/></g><path fill="#333" d="M50-231l6-30h32l-6 30H50zM6 0l37-190h31L37 0H6" id="av"/><path fill="#333" d="M133-28C103 26-5 8 13-77c13-62 24-115 90-117 29-1 46 15 56 35l19-102h32L160 0h-30zM45-64c-2 27 10 43 35 43 54-1 69-50 69-103 0-29-15-46-42-46-53-1-58 58-62 106" id="aw"/><g id="j"><use transform="matrix(0.05,0,0,0.05,0,0)" xlink:href="#as"/><use transform="matrix(0.05,0,0,0.05,9,0)" xlink:href="#ap"/><use transform="matrix(0.05,0,0,0.05,19,0)" xlink:href="#at"/><use transform="matrix(0.05,0,0,0.05,28,0)" xlink:href="#au"/><use transform="matrix(0.05,0,0,0.05,38,0)" xlink:href="#ar"/><use transform="matrix(0.05,0,0,0.05,48,0)" xlink:href="#av"/><use transform="matrix(0.05,0,0,0.05,51.95,0)" xlink:href="#aw"/></g><path fill="#333" d="M66-151c12-25 30-51 66-40l-6 26C45-176 58-65 38 0H6l36-190h30" id="ax"/><g id="k"><use transform="matrix(0.05,0,0,0.05,0,0)" xlink:href="#at"/><use transform="matrix(0.05,0,0,0.05,9,0)" xlink:href="#au"/><use transform="matrix(0.05,0,0,0.05,19,0)" xlink:href="#ax"/><use transform="matrix(0.05,0,0,0.05,24.95,0)" xlink:href="#av"/><use transform="matrix(0.05,0,0,0.05,28.899999999999995,0)" xlink:href="#ap"/><use transform="matrix(0.05,0,0,0.05,38.9,0)" xlink:href="#ao"/></g><path fill="#333" d="M67-158c22-48 132-52 116 29L158 0h-32l25-140c3-38-53-32-70-12C52-117 51-52 38 0H6l36-190h30" id="ay"/><path fill="#333" d="M51-54c-9 22 5 41 31 30L79-1C43 14 10-4 19-52l22-115H19l5-23h22l19-43h21l-9 43h35l-4 23H73" id="az"/><g id="l"><use transform="matrix(0.05,0,0,0.05,0,0)" xlink:href="#av"/><use transform="matrix(0.05,0,0,0.05,3.95,0)" xlink:href="#ay"/><use transform="matrix(0.05,0,0,0.05,13.949999999999998,0)" xlink:href="#az"/></g><path fill="#333" d="M248-111c6-24 9-61-24-58-72 9-57 108-77 169h-31l26-142c3-37-50-30-64-10C52-115 50-51 37 0H6l36-190h30c-1 10-6 24-4 32 13-43 101-52 105 5 13-22 29-41 61-41 90 0 28 129 23 194h-31" id="aA"/><g id="m"><use transform="matrix(0.05,0,0,0.05,0,0)" xlink:href="#as"/><use transform="matrix(0.05,0,0,0.05,9,0)" xlink:href="#ap"/><use transform="matrix(0.05,0,0,0.05,19,0)" xlink:href="#at"/><use transform="matrix(0.05,0,0,0.05,28,0)" xlink:href="#au"/><use transform="matrix(0.05,0,0,0.05,38,0)" xlink:href="#ar"/><use transform="matrix(0.05,0,0,0.05,48,0)" xlink:href="#ay"/><use transform="matrix(0.05,0,0,0.05,58,0)" xlink:href="#ap"/><use transform="matrix(0.05,0,0,0.05,68,0)" xlink:href="#aA"/><use transform="matrix(0.05,0,0,0.05,82.95,0)" xlink:href="#au"/></g><path fill="#333" d="M124 0L87-78 21 0h-35l86-98-46-92h33l34 74 61-74h37l-83 92 50 98h-34" id="aB"/><g id="n"><use transform="matrix(0.05,0,0,0.05,0,0)" xlink:href="#az"/><use transform="matrix(0.05,0,0,0.05,5,0)" xlink:href="#au"/><use transform="matrix(0.05,0,0,0.05,15,0)" xlink:href="#aB"/><use transform="matrix(0.05,0,0,0.05,24,0)" xlink:href="#az"/></g><g id="o"><use transform="matrix(0.05,0,0,0.05,0,0)" xlink:href="#as"/><use transform="matrix(0.05,0,0,0.05,9,0)" xlink:href="#ap"/><use transform="matrix(0.05,0,0,0.05,19,0)" xlink:href="#at"/><use transform="matrix(0.05,0,0,0.05,28,0)" xlink:href="#au"/><use transform="matrix(0.05,0,0,0.05,38,0)" xlink:href="#ar"/><use transform="matrix(0.05,0,0,0.05,48,0)" xlink:href="#aw"/><use transform="matrix(0.05,0,0,0.05,58,0)" xlink:href="#au"/><use transform="matrix(0.05,0,0,0.05,68,0)" xlink:href="#at"/><use transform="matrix(0.05,0,0,0.05,77,0)" xlink:href="#as"/></g><g id="p"><use transform="matrix(0.05,0,0,0.05,0,0)" xlink:href="#aw"/><use transform="matrix(0.05,0,0,0.05,10,0)" xlink:href="#au"/><use transform="matrix(0.05,0,0,0.05,20,0)" xlink:href="#ao"/><use transform="matrix(0.05,0,0,0.05,23.95,0)" xlink:href="#au"/><use transform="matrix(0.05,0,0,0.05,33.95,0)" xlink:href="#az"/><use transform="matrix(0.05,0,0,0.05,38.95,0)" xlink:href="#au"/><use transform="matrix(0.05,0,0,0.05,48.95,0)" xlink:href="#aw"/></g><path fill="#333" d="M89 0H52L20-190h33L74-25l89-165h34" id="aC"/><path fill="#333" d="M67-158c15-20 31-36 64-36 94 0 33 127 27 194h-32l25-140c3-38-53-32-70-12C52-117 51-51 37 0H6l51-261h31" id="aD"/><path fill="#333" d="M17-49c1-102 45-165 103-212h30C92-210 49-145 49-46 49 4 63 43 85 75H54C30 43 18 2 17-49" id="aE"/><path fill="#333" d="M9 0l6-27h63l36-188-63 39 6-31 66-41h29L110-27h60l-5 27H9" id="aF"/><path fill="#333" d="M98-137C97-35 54 29-4 75h-31C23 23 67-41 67-140c0-50-15-89-37-121h31c24 32 36 73 37 124" id="aG"/><g id="q"><use transform="matrix(0.05,0,0,0.05,0,0)" xlink:href="#aC"/><use transform="matrix(0.05,0,0,0.05,9,0)" xlink:href="#ap"/><use transform="matrix(0.05,0,0,0.05,19,0)" xlink:href="#ax"/><use transform="matrix(0.05,0,0,0.05,24.95,0)" xlink:href="#as"/><use transform="matrix(0.05,0,0,0.05,33.95,0)" xlink:href="#aD"/><use transform="matrix(0.05,0,0,0.05,43.95,0)" xlink:href="#ap"/><use transform="matrix(0.05,0,0,0.05,53.95,0)" xlink:href="#ax"/><use transform="matrix(0.05,0,0,0.05,59.900000000000006,0)" xlink:href="#aE"/><use transform="matrix(0.05,0,0,0.05,65.85000000000001,0)" xlink:href="#aF"/><use transform="matrix(0.05,0,0,0.05,75.85000000000001,0)" xlink:href="#aG"/></g><path fill="#333" d="M67 3c-93-2-31-127-26-193h32L48-50c-3 39 53 32 70 12 30-34 30-101 43-152h32L157 0h-30c1-10 6-24 4-33-14 20-29 37-64 36" id="aH"/><path fill="#333" d="M67-162c32-53 139-36 121 50C175-51 163 2 97 4 68 4 52-11 42-31 38 6 28 39 22 75H-9l50-265h29c-1 10 0 20-3 28zm89 36c0-26-10-43-35-43-54 0-67 50-69 103-1 29 14 45 42 46 53 0 62-58 62-106" id="aI"/><g id="r"><use transform="matrix(0.05,0,0,0.05,0,0)" xlink:href="#aH"/><use transform="matrix(0.05,0,0,0.05,10,0)" xlink:href="#aI"/><use transform="matrix(0.05,0,0,0.05,20,0)" xlink:href="#aw"/><use transform="matrix(0.05,0,0,0.05,30,0)" xlink:href="#ap"/><use transform="matrix(0.05,0,0,0.05,40,0)" xlink:href="#az"/><use transform="matrix(0.05,0,0,0.05,45,0)" xlink:href="#au"/><use transform="matrix(0.05,0,0,0.05,55,0)" xlink:href="#aw"/></g><g id="s"><use transform="matrix(0.05,0,0,0.05,0,0)" xlink:href="#az"/><use transform="matrix(0.05,0,0,0.05,5,0)" xlink:href="#av"/><use transform="matrix(0.05,0,0,0.05,8.95,0)" xlink:href="#aA"/><use transform="matrix(0.05,0,0,0.05,23.9,0)" xlink:href="#au"/><use transform="matrix(0.05,0,0,0.05,33.9,0)" xlink:href="#at"/><use transform="matrix(0.05,0,0,0.05,42.9,0)" xlink:href="#az"/><use transform="matrix(0.05,0,0,0.05,47.9,0)" xlink:href="#ap"/><use transform="matrix(0.05,0,0,0.05,57.900000000000006,0)" xlink:href="#aA"/><use transform="matrix(0.05,0,0,0.05,72.85,0)" xlink:href="#aI"/></g><g id="t"><use transform="matrix(0.05,0,0,0.05,0,0)" xlink:href="#as"/><use transform="matrix(0.05,0,0,0.05,9,0)" xlink:href="#ax"/><use transform="matrix(0.05,0,0,0.05,14.949999999999998,0)" xlink:href="#au"/><use transform="matrix(0.05,0,0,0.05,24.95,0)" xlink:href="#ap"/><use transform="matrix(0.05,0,0,0.05,34.95,0)" xlink:href="#az"/><use transform="matrix(0.05,0,0,0.05,39.95,0)" xlink:href="#au"/><use transform="matrix(0.05,0,0,0.05,49.95,0)" xlink:href="#aw"/></g><path fill="#333" d="M30-147c31-64 166-65 159 27C183-49 158 1 86 4 9 8 1-88 30-147zM88-20c53 0 68-48 68-100 0-31-11-51-44-50-52 1-68 46-68 97 0 32 13 53 44 53" id="aJ"/><g id="u"><use transform="matrix(0.05,0,0,0.05,0,0)" xlink:href="#ao"/><use transform="matrix(0.05,0,0,0.05,3.95,0)" xlink:href="#ap"/><use transform="matrix(0.05,0,0,0.05,13.949999999999998,0)" xlink:href="#aq"/><use transform="matrix(0.05,0,0,0.05,26.899999999999995,0)" xlink:href="#ar"/><use transform="matrix(0.05,0,0,0.05,36.9,0)" xlink:href="#aw"/><use transform="matrix(0.05,0,0,0.05,46.9,0)" xlink:href="#aJ"/><use transform="matrix(0.05,0,0,0.05,56.900000000000006,0)" xlink:href="#as"/><use transform="matrix(0.05,0,0,0.05,65.9,0)" xlink:href="#aH"/><use transform="matrix(0.05,0,0,0.05,75.9,0)" xlink:href="#aA"/><use transform="matrix(0.05,0,0,0.05,90.85000000000001,0)" xlink:href="#au"/><use transform="matrix(0.05,0,0,0.05,100.85000000000001,0)" xlink:href="#ay"/><use transform="matrix(0.05,0,0,0.05,110.85000000000001,0)" xlink:href="#az"/></g><g id="v"><use transform="matrix(0.05,0,0,0.05,0,0)" xlink:href="#aw"/><use transform="matrix(0.05,0,0,0.05,10,0)" xlink:href="#aJ"/><use transform="matrix(0.05,0,0,0.05,20,0)" xlink:href="#as"/><use transform="matrix(0.05,0,0,0.05,29,0)" xlink:href="#aH"/><use transform="matrix(0.05,0,0,0.05,39,0)" xlink:href="#aA"/><use transform="matrix(0.05,0,0,0.05,53.95,0)" xlink:href="#au"/><use transform="matrix(0.05,0,0,0.05,63.95,0)" xlink:href="#ay"/><use transform="matrix(0.05,0,0,0.05,73.95,0)" xlink:href="#az"/><use transform="matrix(0.05,0,0,0.05,78.95,0)" xlink:href="#ar"/><use transform="matrix(0.05,0,0,0.05,88.95,0)" xlink:href="#av"/><use transform="matrix(0.05,0,0,0.05,92.9,0)" xlink:href="#aw"/></g><g id="w"><use transform="matrix(0.05,0,0,0.05,0,0)" xlink:href="#at"/><use transform="matrix(0.05,0,0,0.05,9,0)" xlink:href="#au"/><use transform="matrix(0.05,0,0,0.05,19,0)" xlink:href="#ax"/><use transform="matrix(0.05,0,0,0.05,24.95,0)" xlink:href="#av"/><use transform="matrix(0.05,0,0,0.05,28.899999999999995,0)" xlink:href="#ap"/><use transform="matrix(0.05,0,0,0.05,38.9,0)" xlink:href="#ao"/></g><g id="x"><use transform="matrix(0.05,0,0,0.05,0,0)" xlink:href="#av"/><use transform="matrix(0.05,0,0,0.05,3.95,0)" xlink:href="#ay"/><use transform="matrix(0.05,0,0,0.05,13.949999999999998,0)" xlink:href="#az"/></g><g id="y"><use transform="matrix(0.05,0,0,0.05,0,0)" xlink:href="#as"/><use transform="matrix(0.05,0,0,0.05,9,0)" xlink:href="#ap"/><use transform="matrix(0.05,0,0,0.05,19,0)" xlink:href="#at"/><use transform="matrix(0.05,0,0,0.05,28,0)" xlink:href="#au"/><use transform="matrix(0.05,0,0,0.05,38,0)" xlink:href="#ar"/><use transform="matrix(0.05,0,0,0.05,48,0)" xlink:href="#av"/><use transform="matrix(0.05,0,0,0.05,51.95,0)" xlink:href="#aw"/></g><g id="z"><use transform="matrix(0.05,0,0,0.05,0,0)" xlink:href="#av"/><use transform="matrix(0.05,0,0,0.05,3.95,0)" xlink:href="#ay"/><use transform="matrix(0.05,0,0,0.05,13.949999999999998,0)" xlink:href="#az"/></g><g id="A"><use transform="matrix(0.05,0,0,0.05,0,0)" xlink:href="#aw"/><use transform="matrix(0.05,0,0,0.05,10,0)" xlink:href="#aJ"/><use transform="matrix(0.05,0,0,0.05,20,0)" xlink:href="#as"/><use transform="matrix(0.05,0,0,0.05,29,0)" xlink:href="#aH"/><use transform="matrix(0.05,0,0,0.05,39,0)" xlink:href="#aA"/><use transform="matrix(0.05,0,0,0.05,53.95,0)" xlink:href="#au"/><use transform="matrix(0.05,0,0,0.05,63.95,0)" xlink:href="#ay"/><use transform="matrix(0.05,0,0,0.05,73.95,0)" xlink:href="#az"/><use transform="matrix(0.05,0,0,0.05,78.95,0)" xlink:href="#ar"/><use transform="matrix(0.05,0,0,0.05,88.95,0)" xlink:href="#ay"/><use transform="matrix(0.05,0,0,0.05,98.95,0)" xlink:href="#ap"/><use transform="matrix(0.05,0,0,0.05,108.95,0)" xlink:href="#aA"/><use transform="matrix(0.05,0,0,0.05,123.9,0)" xlink:href="#au"/></g><g id="B"><use transform="matrix(0.05,0,0,0.05,0,0)" xlink:href="#az"/><use transform="matrix(0.05,0,0,0.05,5,0)" xlink:href="#au"/><use transform="matrix(0.05,0,0,0.05,15,0)" xlink:href="#aB"/><use transform="matrix(0.05,0,0,0.05,24,0)" xlink:href="#az"/></g><g id="C"><use transform="matrix(0.05,0,0,0.05,0,0)" xlink:href="#aw"/><use transform="matrix(0.05,0,0,0.05,10,0)" xlink:href="#aJ"/><use transform="matrix(0.05,0,0,0.05,20,0)" xlink:href="#as"/><use transform="matrix(0.05,0,0,0.05,29,0)" xlink:href="#aH"/><use transform="matrix(0.05,0,0,0.05,39,0)" xlink:href="#aA"/><use transform="matrix(0.05,0,0,0.05,53.95,0)" xlink:href="#au"/><use transform="matrix(0.05,0,0,0.05,63.95,0)" xlink:href="#ay"/><use transform="matrix(0.05,0,0,0.05,73.95,0)" xlink:href="#az"/><use transform="matrix(0.05,0,0,0.05,78.95,0)" xlink:href="#ar"/><use transform="matrix(0.05,0,0,0.05,88.95,0)" xlink:href="#aw"/><use transform="matrix(0.05,0,0,0.05,98.95,0)" xlink:href="#au"/><use transform="matrix(0.05,0,0,0.05,108.95,0)" xlink:href="#at"/><use transform="matrix(0.05,0,0,0.05,117.95,0)" xlink:href="#as"/></g><g id="D"><use transform="matrix(0.05,0,0,0.05,0,0)" xlink:href="#aD"/><use transform="matrix(0.05,0,0,0.05,10,0)" xlink:href="#ap"/><use transform="matrix(0.05,0,0,0.05,20,0)" xlink:href="#at"/><use transform="matrix(0.05,0,0,0.05,29,0)" xlink:href="#aD"/></g><path fill="#333" d="M76-167L44 0H12l33-167H18l4-23h27c3-47 25-81 82-69l-4 24c-35-8-44 15-46 45h37l-5 23H76" id="aK"/><g id="E"><use transform="matrix(0.05,0,0,0.05,0,0)" xlink:href="#aK"/><use transform="matrix(0.05,0,0,0.05,5,0)" xlink:href="#av"/><use transform="matrix(0.05,0,0,0.05,8.95,0)" xlink:href="#ao"/><use transform="matrix(0.05,0,0,0.05,12.899999999999999,0)" xlink:href="#au"/><use transform="matrix(0.05,0,0,0.05,22.9,0)" xlink:href="#ar"/><use transform="matrix(0.05,0,0,0.05,32.9,0)" xlink:href="#av"/><use transform="matrix(0.05,0,0,0.05,36.85,0)" xlink:href="#aw"/></g><g id="F"><use transform="matrix(0.05,0,0,0.05,0,0)" xlink:href="#az"/><use transform="matrix(0.05,0,0,0.05,5,0)" xlink:href="#aB"/></g><g id="G"><use transform="matrix(0.05,0,0,0.05,0,0)" xlink:href="#aw"/><use transform="matrix(0.05,0,0,0.05,10,0)" xlink:href="#au"/><use transform="matrix(0.05,0,0,0.05,20,0)" xlink:href="#ao"/><use transform="matrix(0.05,0,0,0.05,23.95,0)" xlink:href="#au"/><use transform="matrix(0.05,0,0,0.05,33.95,0)" xlink:href="#az"/><use transform="matrix(0.05,0,0,0.05,38.95,0)" xlink:href="#au"/><use transform="matrix(0.05,0,0,0.05,48.95,0)" xlink:href="#aw"/></g><g id="H"><use transform="matrix(0.05,0,0,0.05,0,0)" xlink:href="#aC"/><use transform="matrix(0.05,0,0,0.05,9,0)" xlink:href="#ap"/><use transform="matrix(0.05,0,0,0.05,19,0)" xlink:href="#ax"/><use transform="matrix(0.05,0,0,0.05,24.95,0)" xlink:href="#as"/><use transform="matrix(0.05,0,0,0.05,33.95,0)" xlink:href="#aD"/><use transform="matrix(0.05,0,0,0.05,43.95,0)" xlink:href="#ap"/><use transform="matrix(0.05,0,0,0.05,53.95,0)" xlink:href="#ax"/><use transform="matrix(0.05,0,0,0.05,59.900000000000006,0)" xlink:href="#aE"/><use transform="matrix(0.05,0,0,0.05,65.85000000000001,0)" xlink:href="#aF"/><use transform="matrix(0.05,0,0,0.05,75.85000000000001,0)" xlink:href="#aG"/></g><path fill="#333" d="M151-220L108 0H75l42-220H32l6-28h203l-5 28h-85" id="aL"/><path fill="#333" d="M198-190L69 30C53 58 25 83-20 72c4-11-1-27 19-22 33-1 43-29 59-52L20-190h32L79-34l84-156h35" id="aM"/><g id="I"><use transform="matrix(0.05,0,0,0.05,0,0)" xlink:href="#aL"/><use transform="matrix(0.05,0,0,0.05,9.600000000000001,0)" xlink:href="#aM"/><use transform="matrix(0.05,0,0,0.05,18.6,0)" xlink:href="#aI"/><use transform="matrix(0.05,0,0,0.05,28.6,0)" xlink:href="#au"/></g><path fill="#333" d="M127 0L80-88 50-66 37 0H6l51-261h31L57-100l99-90h39l-93 82L161 0h-34" id="aN"/><g id="J"><use transform="matrix(0.05,0,0,0.05,0,0)" xlink:href="#ao"/><use transform="matrix(0.05,0,0,0.05,3.95,0)" xlink:href="#ap"/><use transform="matrix(0.05,0,0,0.05,13.949999999999998,0)" xlink:href="#aq"/><use transform="matrix(0.05,0,0,0.05,26.899999999999995,0)" xlink:href="#ar"/><use transform="matrix(0.05,0,0,0.05,36.9,0)" xlink:href="#aN"/><use transform="matrix(0.05,0,0,0.05,45.9,0)" xlink:href="#au"/><use transform="matrix(0.05,0,0,0.05,55.900000000000006,0)" xlink:href="#aM"/></g><g id="K"><use transform="matrix(0.05,0,0,0.05,0,0)" xlink:href="#aN"/><use transform="matrix(0.05,0,0,0.05,9,0)" xlink:href="#au"/><use transform="matrix(0.05,0,0,0.05,19,0)" xlink:href="#aM"/><use transform="matrix(0.05,0,0,0.05,28,0)" xlink:href="#at"/><use transform="matrix(0.05,0,0,0.05,37,0)" xlink:href="#ar"/><use transform="matrix(0.05,0,0,0.05,47,0)" xlink:href="#av"/><use transform="matrix(0.05,0,0,0.05,50.95,0)" xlink:href="#aw"/></g><g id="L"><use transform="matrix(0.05,0,0,0.05,0,0)" xlink:href="#aN"/><use transform="matrix(0.05,0,0,0.05,9,0)" xlink:href="#au"/><use transform="matrix(0.05,0,0,0.05,19,0)" xlink:href="#aM"/><use transform="matrix(0.05,0,0,0.05,28,0)" xlink:href="#ar"/><use transform="matrix(0.05,0,0,0.05,38,0)" xlink:href="#au"/><use transform="matrix(0.05,0,0,0.05,48,0)" xlink:href="#ay"/><use transform="matrix(0.05,0,0,0.05,58,0)" xlink:href="#as"/></g></defs></g></svg>